<svg xmlns="http://www.w3.org/2000/svg" viewBox="0 0 256 256" width="256" height="256">
  <g fill="none" stroke="#ff0000" stroke-width="5" stroke-linecap="round" stroke-linejoin="round">
    <!-- spline-like bundled connections -->
    <path d="M68 82 C 132 82, 132 36, 188 36"/>
    <path d="M68 82 C 132 82, 132 104, 188 104"/>
    <path d="M68 82 C 132 82, 132 172, 188 172"/>
 </g>
 <g fill="none" stroke="#000" stroke-width="5" stroke-linecap="round" stroke-linejoin="round">
    <path d="M68 133 C 132 133, 132 36, 188 36"/>
    <path d="M68 133 C 132 133, 132 104, 188 104"/>
    <path d="M68 133 C 132 133, 132 172, 188 172"/>
  </g>

  <g fill="#ff0000">
    <circle cx="52" cy="82" r="16"/>
  </g>
  <g fill="#000">
    <circle cx="52" cy="133" r="16"/>
    <circle cx="204" cy="36" r="16"/>
    <circle cx="204" cy="104" r="16"/>
    <circle cx="204" cy="172" r="16"/>
  </g>
</svg>
